<svg id="Capa_1" enable-background="new 0 0 512 512" height="512" viewBox="0 0 512 512" width="512" xmlns="http://www.w3.org/2000/svg"><g><g><path d="m62.049 219.634v-121.219h-30.305c-5.579 0-10.102 4.523-10.102 10.102v101.016c0 5.579 4.523 10.102 10.102 10.102h30.305z" fill="#818181"/></g><g><path d="m449.951 219.634v-121.219h30.305c5.579 0 10.102 4.523 10.102 10.102v101.016c0 5.579-4.523 10.102-10.102 10.102h-30.305z" fill="#595959"/></g><g><path d="m430.253 504.5h-60.61c-11.158 0-20.203-9.045-20.203-20.203v-60.61h101.016v60.61c0 11.158-9.045 20.203-20.203 20.203z" fill="#818181"/></g><g><path d="m349.44 423.687h101.016v24.244h-101.016z" fill="#595959"/></g><g><path d="m81.747 504.5h60.61c11.158 0 20.203-9.045 20.203-20.203v-60.61h-101.016v60.61c0 11.158 9.045 20.203 20.203 20.203z" fill="#818181"/></g><g><path d="m61.544 423.687h101.016v24.244h-101.016z" fill="#595959"/></g><g><path d="m449.951 389.341h-387.902v-361.638c0-11.158 9.045-20.203 20.203-20.203h347.496c11.158 0 20.203 9.045 20.203 20.203z" fill="#e28086"/></g><g><path d="m357.016 389.341h-202.032v-46.467c0-5.579 4.523-10.102 10.102-10.102h181.829c5.579 0 10.102 4.523 10.102 10.102v46.467z" fill="#595959"/></g><g><path d="m429.748 7.5h-23.234c11.158 0 20.203 9.045 20.203 20.203v361.638h23.234v-361.638c0-11.158-9.045-20.203-20.203-20.203z" fill="#dd636e"/></g><g><path d="m154.984-38.967h202.033v387.902h-202.033z" fill="#9dc6fb" transform="matrix(0 1 -1 0 410.984 -101.016)"/></g><g><path d="m426.717 53.967h23.234v202.033h-23.234z" fill="#80b4fb"/></g><g><path d="m449.951 348.935h-60.61v-28.285c0-11.158 9.045-20.203 20.203-20.203h40.407z" fill="#ffe07d"/></g><g><path d="m426.717 300.447h23.234v48.488h-23.234z" fill="#ffd064"/></g><g><path d="m62.049 348.935h60.61v-28.285c0-11.158-9.045-20.203-20.203-20.203h-40.407z" fill="#ffe07d"/></g><g><path d="m47.907 389.341h416.187v34.346h-416.187z" fill="#f9f6f9"/></g><g><path d="m441.87 389.341h22.224v34.346h-22.224z" fill="#c6c1c8"/></g><g><path d="m205.492 86.293h101.016v32.325h-101.016z" fill="#c6c1c8"/></g><g><path d="m480.256 90.915h-22.805v-63.212c0-15.275-12.428-27.703-27.703-27.703h-347.496c-15.275 0-27.703 12.428-27.703 27.703v63.211h-22.805c-9.705 0-17.602 7.896-17.602 17.602v101.017c0 9.706 7.896 17.602 17.602 17.602h22.805v154.707h-6.643c-4.143 0-7.5 3.358-7.5 7.5v34.346c0 4.142 3.357 7.5 7.5 7.5h6.138v53.11c0 15.275 12.428 27.703 27.703 27.703h60.609c15.275 0 27.703-12.428 27.703-27.703v-53.11h171.881v53.11c0 15.275 12.428 27.703 27.703 27.703h60.609c15.275 0 27.703-12.428 27.703-27.703v-53.11h6.138c4.143 0 7.5-3.358 7.5-7.5v-34.346c0-4.142-3.357-7.5-7.5-7.5h-6.643v-154.708h22.805c9.705 0 17.602-7.896 17.602-17.602v-101.016c0-9.705-7.896-17.601-17.601-17.601zm-37.805 250.52h-45.609v-20.785c0-7.004 5.698-12.703 12.703-12.703h32.906zm-372.902-33.488h32.906c7.005 0 12.703 5.699 12.703 12.703v20.785h-45.609zm-37.805-95.813c-1.435 0-2.602-1.167-2.602-2.602v-101.016c0-1.435 1.167-2.602 2.602-2.602h22.805v106.22zm123.316 272.163c0 7.004-5.698 12.703-12.703 12.703h-60.61c-7.005 0-12.703-5.699-12.703-12.703v-53.11h86.016zm287.896 0c0 7.004-5.698 12.703-12.703 12.703h-60.609c-7.005 0-12.703-5.699-12.703-12.703v-53.11h43.008c4.143 0 7.5-3.358 7.5-7.5s-3.357-7.5-7.5-7.5h-344.543v-19.346h401.188v19.346h-21.607c-4.143 0-7.5 3.358-7.5 7.5s3.357 7.5 7.5 7.5h7.97v53.11zm-93.439-102.456h-187.034v-38.967c0-1.435 1.167-2.602 2.602-2.602h181.83c1.435 0 2.602 1.167 2.602 2.602zm15 0v-38.967c0-9.706-7.896-17.602-17.602-17.602h-181.83c-9.705 0-17.602 7.896-17.602 17.602v38.967h-77.934v-25.406h53.109c4.143 0 7.5-3.358 7.5-7.5v-28.285c0-15.275-12.428-27.703-27.703-27.703h-32.906v-29.447h81.272c4.143 0 7.5-3.358 7.5-7.5s-3.357-7.5-7.5-7.5h-22.178v-27.445l88.748-28.628c3.941-1.271 6.106-5.498 4.835-9.44-1.271-3.943-5.5-6.107-9.44-4.835l-93.945 30.305c-.008.003-.015.007-.023.01-.015.005-.031.008-.046.013l-18.184 6.061c-3.929 1.31-6.053 5.557-4.743 9.487 1.048 3.143 3.974 5.13 7.114 5.13.786 0 1.586-.125 2.373-.387l8.312-2.771v22.5h-44.095v-187.033h178.951v17.325h-43.008c-4.143 0-7.5 3.358-7.5 7.5v32.325c0 4.142 3.357 7.5 7.5 7.5h101.016c4.143 0 7.5-3.358 7.5-7.5v-32.325c0-4.142-3.357-7.5-7.5-7.5h-43.008v-17.325h89.421c4.143 0 7.5-3.358 7.5-7.5s-3.357-7.5-7.5-7.5h-283.372v-18.764c0-7.004 5.698-12.703 12.703-12.703h347.496c7.005 0 12.703 5.699 12.703 12.703v18.764h-54.522c-4.143 0-7.5 3.358-7.5 7.5s3.357 7.5 7.5 7.5h54.522v187.033h-44.095v-22.501l8.312 2.771c.787.262 1.587.387 2.373.387 3.14 0 6.066-1.988 7.114-5.13 1.31-3.93-.814-8.177-4.743-9.487l-18.184-6.061c-.015-.005-.031-.008-.046-.013-.008-.003-.015-.007-.023-.01l-93.945-30.305c-3.941-1.271-8.169.893-9.44 4.835s.894 8.169 4.835 9.44l88.748 28.628v27.446h-197.537c-4.143 0-7.5 3.358-7.5 7.5s3.357 7.5 7.5 7.5h256.631v29.447h-32.906c-15.275 0-27.703 12.428-27.703 27.703v28.285c0 4.142 3.357 7.5 7.5 7.5h53.109v25.406zm-65.509-288.049v17.325h-86.016v-17.325zm183.849 115.741c0 1.435-1.167 2.602-2.602 2.602h-22.805v-106.22h22.805c1.435 0 2.602 1.167 2.602 2.602z"/><path d="m326.711 292.947h-141.422c-4.143 0-7.5 3.358-7.5 7.5s3.357 7.5 7.5 7.5h141.422c4.143 0 7.5-3.358 7.5-7.5s-3.357-7.5-7.5-7.5z"/></g></g></svg>